<?xml version="1.0" standalone="no"?><!DOCTYPE svg PUBLIC "-//W3C//DTD SVG 1.1//EN" "http://www.w3.org/Graphics/SVG/1.1/DTD/svg11.dtd"><svg t="1565748968705" class="icon" viewBox="0 0 1024 1024" version="1.1" xmlns="http://www.w3.org/2000/svg" p-id="16915" xmlns:xlink="http://www.w3.org/1999/xlink" width="64" height="64"><defs><style type="text/css"></style></defs><path d="M711.168 544.768c-5.12-65.024 212.992-62.976 212.992-62.976s-169.472-36.864-248.832 29.184c-100.352 83.456 51.2 136.192 85.504 170.496 34.304 34.304 37.376 93.696-112.64 97.28-150.016 3.584-256-6.656-256-6.656s-29.696 123.904-56.32 189.44c0 0 288.256 8.704 403.968-18.944 115.712-27.136 238.592-119.296 185.856-225.28-52.224-105.984-209.408-108.032-214.528-172.544zM288.768 61.952C130.56 61.952 2.56 189.952 2.56 348.16 2.048 506.88 230.4 631.808 288.768 947.2c81.92-310.272 286.72-440.32 286.72-598.528-0.512-158.208-128.512-286.72-286.72-286.72z m0 438.272c-83.968 0-151.552-68.096-151.552-151.552 0-83.968 68.096-151.552 151.552-151.552C372.224 196.608 440.32 264.704 440.32 348.672c0 83.456-68.096 151.552-151.552 151.552z m727.04-311.296c0.512-45.568-23.552-88.064-62.976-110.592-39.424-23.04-88.064-23.04-127.488 0-39.424 23.04-63.488 65.024-62.976 110.592 0 70.144 100.864 124.928 126.464 264.704 36.352-137.728 126.976-195.072 126.976-264.704z m-193.536 0c-0.512-24.064 12.288-46.592 33.28-58.88a66.56 66.56 0 0 1 67.584 0c20.992 12.288 33.792 34.816 33.28 58.88-0.512 36.864-30.208 66.048-67.072 66.048s-66.56-29.696-67.072-66.048z m0 0" fill="#1DA57A" p-id="16916"></path></svg>